<svg viewBox="0 0 1019.4842 436.68123" xmlns="http://www.w3.org/2000/svg"><path d="m314.02808 475.27364a9.75072 9.75072 0 1 0 -19.40734 1.28194l-28.01439 36.68607a13.58254 13.58254 0 0 0 1.83575 14.91417l2.19759 2.56354 10.083-2.01667 11.42794-10.08331-1.34463-11.42774 14.1167-22.18324-.01825-.01592a9.74283 9.74283 0 0 0 9.12363-9.71884z" fill="#ffb9b9" transform="translate(-90.2579 -231.65939)"/><path d="m30.041 422.968-4.573-16.984 63.332-25.719 6.749 25.066z" fill="#ffb8b8"/><path d="m105.002 663.39128-14.7441-54.76212.69264-.18651a22.07516 22.07516 0 0 1 27.054 15.57522l.00037.00135 9.00509 33.44687z" fill="#2f2e41" transform="translate(-90.2579 -231.65939)"/><path d="m117.278 420.254-14.224-10.344 33.131-59.789 20.994 15.267z" fill="#ffb8b8"/><path d="m201.1368 668.34061-45.86612-33.35531.42187-.58015a22.07517 22.07517 0 0 1 30.8348-4.87041l.00114.00082 28.01339 20.37244z" fill="#2f2e41" transform="translate(-90.2579 -231.65939)"/><path d="m328.45025 568.36357-35.795-34.77263a18.07626 18.07626 0 0 0 -23.66833-1.3221l-67.58632 75.08366 6.05018 9.41084 64.53278-43.69434 43.69437 57.13867 41.67764-20.83841z" fill="#2f2e41" transform="translate(-90.2579 -231.65939)"/><path d="m312.98939 575.75807-26.21673-2.01667-18.986-4.60272a9.75256 9.75256 0 1 0 -1.85 12.65572l-.00277.01364 11.42793 4.70553 49.07181 16.80551 6.05-4.70553z" fill="#ffb9b9" transform="translate(-90.2579 -231.65939)"/><path d="m285.92 416.699-14.789 9.411h-17.478l-81.338-30.25-118.983 21.511-3.361-25.545 108.9-47.727 95.455 31.594z" fill="#2f2e41"/><circle cx="254.32577" cy="227.13245" fill="#ffb9b9" r="26.21658"/><path d="m412.41738 563.46316a150.631 150.631 0 0 1 -7.3877 46.59159l-1.96286 6.03657-9.4111 43.0221-10.08328 2.68886-7.39442-9.41107-14.78884-10.7555-10.75552-17.47771-9.22284-15.367-2.87712-4.79967-10.08331-50.41649-38.31653-21.511-12.77217-2.01667 2.68889-7.39442 11.42774-15.46106 11.42768-1.34449 3.36111-2.68888 2.68888 1.34443 14.82257 5.71013 48.05688-20.304 7.03142 1.14951 24.19988 20.16661a150.49912 150.49912 0 0 1 9.35064 52.23816z" fill="#ba6cff" transform="translate(-90.2579 -231.65939)"/><path d="m314.825 325.949-25.544 16.805-38.128 34.377-2.877-4.799-8.067-40.333h2.017l20.839-38.316z" opacity=".1"/><path d="m263.065 289.649-20.839 38.316-12.1 13.445-10.755 2.689 28.905 31.594 41.005-36.972 25.544-16.806z" fill="#ba6cff"/><path d="m324.19252 439.29866-2.8405 1.09286a3.96532 3.96532 0 0 1 -1.06033-5.50666q.02295-.03393.04661-.06735l-5.24917-.24564a39.63744 39.63744 0 0 1 59.17341-4.76951c.239-.8231 2.84419.7783 3.90783 2.40209.35739-1.33937 2.8001 5.13521 3.66407 9.71188.4-1.52384 1.93791.9362.59056 3.2967.8537-.12472 1.23931 2.05947.57843 3.27633.934-.43878.77654 2.16855-.23609 3.911 1.3327-.11841-.1137 27.33122-20.1137 25.33122-1.39236-6.39749-1-6-2.63957-14.22639-.76312-.81-1.59882-1.54779-2.43315-2.28425l-4.51259-3.9833c-5.2473-4.63182-10.02063-10.34844-17.01093-12.07955-4.80393-1.18968-7.84143-1.45827-5.22344-6.87151-2.36532.98706-4.57411 2.45493-6.96063 3.37169.03206-.7564.36561-1.60282.31919-2.35961z" fill="#2f2e41" transform="translate(-90.2579 -231.65939)"/><circle cx="267.43406" cy="230.15744" fill="#ffb9b9" r="4.70554"/><path d="m137.51364 351.37595h21.61009v21.61009h-21.61009z" fill="#bca834" transform="matrix(.06644944 -.99778979 .99778979 .06644944 -313.1754 254.44578)"/><path d="m124.34354 362.13134 26.18282 1.74368-1.74369 26.18282-26.18282-1.74368zm24.96862 2.80626-23.90605-1.59206-1.59206 23.906 23.90605 1.59206z" fill="#ba6cff" transform="translate(-90.2579 -231.65939)"/><path d="m241.00867 288.77184h21.61009v21.61009h-21.61009z" fill="#bca834" transform="matrix(.97768526 -.21007504 .21007504 .97768526 -147.57238 -172.07462)"/><path d="m245.27842 276.50957 5.51255 25.65526-25.65526 5.51254-5.51254-25.65526zm4.15743 24.7795-5.0332-23.42436-23.42437 5.03319 5.03319 23.42438z" fill="#ba6cff" transform="translate(-90.2579 -231.65939)"/><path d="m226.60299 392.67408h21.61008v21.61009h-21.61008z" fill="#bca834" transform="matrix(.72983878 -.68361931 .68361931 .72983878 -301.94557 39.64172)"/><path d="m253.81456 385.99664-19.15156 17.93874-17.93873-19.15156 19.15156-17.93872zm-19.09885 16.3261 17.48621-16.37883-16.37884-17.48618-17.48621 16.37884z" fill="#ba6cff" transform="translate(-90.2579 -231.65939)"/><path d="m1053.535 231.65939h-639.38277a17.59849 17.59849 0 0 0 -17.59851 17.59849v356.2522a17.59854 17.59854 0 0 0 17.59851 17.59857h639.38277a17.59856 17.59856 0 0 0 17.59851-17.59857v-356.2522a17.59852 17.59852 0 0 0 -17.59851-17.59849z" fill="#3f3d56" transform="translate(-90.2579 -231.65939)"/><path d="m329.89003 31.10145h627.39127v353.91303h-627.39127z" fill="#fff"/><circle cx="643.04942" cy="15.01449" fill="#fff" r="6.43477"/><path d="m777.858 385.015h-447.968v-353.913z" fill="#f2f2f2"/><circle cx="428.05798" cy="298.22423" fill="#5000ca" r="60.3068"/><g fill="#3f3d56"><path d="m531.74082 575.21a75.01577 75.01577 0 1 1 75.01581-75.01575 75.01578 75.01578 0 0 1 -75.01581 75.01575zm0-149.051a74.03519 74.03519 0 1 0 74.03518 74.03528 74.03518 74.03518 0 0 0 -74.03522-74.03521z" transform="translate(-90.2579 -231.65939)"/><path d="m753.43694 214.96957h58.60522v12.24586h-58.60522z"/><path d="m697.99083 148.62679h169.49743v5.24823h-169.49743z"/><path d="m697.99083 169.24617h169.49743v5.24823h-169.49743z"/><path d="m697.99083 189.86555h169.49743v5.24823h-169.49743z"/></g><path d="m888.40147 52.28163h24.49176v24.49173h-24.49176z" fill="#5000ca"/><path d="m1014.52225 319.8039h-29.74v-29.74h29.74zm-28.4469-1.293h27.15381v-27.1539h-27.15387z" fill="#ba6cff" transform="translate(-90.2579 -231.65939)"/><path d="m1088.74918 610.23908h-61.22937v-4.41156a.87466.87466 0 0 0 -.87463-.87469h-20.993a.87468.87468 0 0 0 -.87476.87463v4.41162h-13.12042v-4.41156a.87468.87468 0 0 0 -.8747-.87469h-20.9929a.87467.87467 0 0 0 -.87469.87469v4.41156h-13.12055v-4.41156a.87467.87467 0 0 0 -.87469-.87469h-20.993a.87468.87468 0 0 0 -.8747.87469v4.41156h-13.12052v-4.41156a.87468.87468 0 0 0 -.8747-.87469h-20.99292a.87466.87466 0 0 0 -.87469.87463v4.41162h-13.12054v-4.41156a.87468.87468 0 0 0 -.8747-.87469h-20.99292a.87467.87467 0 0 0 -.87469.87469v4.41156h-13.12061v-4.41156a.87467.87467 0 0 0 -.87469-.87469h-20.99292a.87468.87468 0 0 0 -.8747.87469v4.41156h-13.12054v-4.41156a.87468.87468 0 0 0 -.8747-.87469h-164.44446a.87467.87467 0 0 0 -.87469.87469v4.41156h-13.12061v-4.41156a.87467.87467 0 0 0 -.87469-.87469h-20.99286a.87468.87468 0 0 0 -.8747.87469v4.41156h-13.1206v-4.41156a.87466.87466 0 0 0 -.87463-.87469h-20.993a.87467.87467 0 0 0 -.87469.87469v4.41156h-13.1206v-4.41156a.87467.87467 0 0 0 -.87469-.87469h-20.99292a.87468.87468 0 0 0 -.8747.87469v4.41156h-13.12054v-4.41156a.87467.87467 0 0 0 -.87469-.87469h-20.99292a.87468.87468 0 0 0 -.8747.87469v4.41156h-13.1206v-4.41156a.87468.87468 0 0 0 -.8747-.87469h-20.99294a.87468.87468 0 0 0 -.87469.87463v4.41162h-13.12056v-4.41156a.87467.87467 0 0 0 -.87466-.87469h-20.99292a.8747.8747 0 0 0 -.8747.87469v4.41156h-40.23647a20.99292 20.99292 0 0 0 -20.99287 20.99292v9.4925a20.99291 20.99291 0 0 0 20.99287 20.99286h698.01416a20.99293 20.99293 0 0 0 20.99292-20.99286v-9.4925a20.9929 20.9929 0 0 0 -20.9929-20.99292z" fill="#3f3d56" transform="translate(-90.2579 -231.65939)"/></svg>